<?xml version="1.0" standalone="no"?>
<!DOCTYPE svg PUBLIC "-//W3C//DTD SVG 20010904//EN"
 "http://www.w3.org/TR/2001/REC-SVG-20010904/DTD/svg10.dtd">
<svg version="1.0" xmlns="http://www.w3.org/2000/svg"
 width="800.000000pt" height="800.000000pt" viewBox="0 0 800.000000 800.000000"
 preserveAspectRatio="xMidYMid meet">
<metadata>
Created by potrace 1.13, written by Peter Selinger 2001-2015
</metadata>
<g transform="translate(0.000000,800.000000) scale(0.100000,-0.100000)"
fill="#000000" stroke="none">
<path d="M3720 7329 c-240 -18 -536 -69 -755 -131 -1378 -388 -2373 -1488
-2540 -2808 -111 -879 165 -1779 756 -2465 90 -105 306 -319 399 -397 482
-402 1058 -674 1690 -797 1133 -220 2320 86 3175 819 133 114 367 359 469 490
705 908 877 2062 464 3115 -165 420 -422 802 -769 1142 -143 140 -209 196
-372 317 -702 521 -1621 782 -2517 715z m541 -359 c721 -56 1389 -323 1922
-769 476 -398 827 -946 971 -1519 142 -561 106 -1152 -104 -1686 -326 -829
-1028 -1483 -1920 -1787 -446 -153 -928 -214 -1391 -179 -721 56 -1389 323
-1922 769 -601 503 -982 1216 -1047 1961 -44 512 52 1009 286 1480 361 725
1016 1282 1829 1557 436 147 920 208 1376 173z"/>
<path d="M3239 5163 c-118 -152 -216 -281 -218 -287 -2 -6 20 11 50 38 116
105 299 207 475 265 282 92 632 88 912 -10 133 -47 289 -132 403 -221 l102
-80 -50 64 c-27 34 -127 163 -222 286 l-172 222 -533 0 -533 0 -214 -277z"/>
<path d="M3853 5079 c-555 -65 -982 -494 -1064 -1068 -14 -103 -7 -307 15
-409 106 -490 480 -853 966 -938 110 -19 321 -19 432 1 611 107 1039 625 1015
1230 -8 198 -47 350 -135 519 -192 372 -553 618 -975 665 -107 12 -149 12
-254 0z m316 -334 c227 -48 447 -196 574 -388 53 -79 104 -192 129 -285 30
-112 30 -325 -1 -437 -77 -284 -287 -511 -563 -610 -128 -45 -223 -59 -370
-52 -378 16 -702 255 -817 601 -68 207 -58 432 28 635 114 267 364 474 646
534 92 20 285 21 374 2z"/>
<path d="M5098 4708 c101 -134 180 -293 227 -455 78 -269 71 -600 -20 -868
-111 -331 -351 -613 -660 -775 -44 -23 -82 -44 -84 -46 -2 -2 356 -4 797 -4
l802 0 0 1090 0 1090 -537 0 c-497 0 -538 1 -556 18 -11 9 3 -13 31 -50z"/>
<path d="M1840 3650 l0 -1090 802 0 c441 0 799 2 797 4 -2 2 -39 22 -81 44
-384 198 -648 546 -740 975 -28 134 -31 387 -4 520 43 219 130 407 285 618 13
18 -1 19 -523 19 l-536 0 0 -1090z"/>
</g>
</svg>
