<?xml version="1.0" encoding="UTF-8" standalone="no"?>
<svg
   xmlns:dc="http://purl.org/dc/elements/1.1/"
   xmlns:cc="http://creativecommons.org/ns#"
   xmlns:rdf="http://www.w3.org/1999/02/22-rdf-syntax-ns#"
   xmlns:svg="http://www.w3.org/2000/svg"
   xmlns="http://www.w3.org/2000/svg"
   xmlns:sodipodi="http://sodipodi.sourceforge.net/DTD/sodipodi-0.dtd"
   xmlns:inkscape="http://www.inkscape.org/namespaces/inkscape"
   version="1.0"
   width="298.000000pt"
   height="297.000000pt"
   viewBox="0 0 298.000000 297.000000"
   preserveAspectRatio="xMidYMid meet"
   id="svg2"
   inkscape:version="0.91 r13725"
   sodipodi:docname="SettingsIco.svg"
   inkscape:export-filename="C:\Users\vidar.EDOCNY2\Documents\Visual Studio 2015\Projects\NgScanApp\NgScanApp\SettingsIco.png"
   inkscape:export-xdpi="90"
   inkscape:export-ydpi="90">
  <defs
     id="defs12" />
  <sodipodi:namedview
     pagecolor="#ffffff"
     bordercolor="#666666"
     borderopacity="1"
     objecttolerance="10"
     gridtolerance="10"
     guidetolerance="10"
     inkscape:pageopacity="0"
     inkscape:pageshadow="2"
     inkscape:window-width="1920"
     inkscape:window-height="1017"
     id="namedview10"
     showgrid="false"
     inkscape:zoom="0.63569024"
     inkscape:cx="-48.927435"
     inkscape:cy="185.625"
     inkscape:window-x="-8"
     inkscape:window-y="-8"
     inkscape:window-maximized="1"
     inkscape:current-layer="svg2" />
  <metadata
     id="metadata4">
Created by potrace 1.13, written by Peter Selinger 2001-2015
<rdf:RDF>
  <cc:Work
     rdf:about="">
    <dc:format>image/svg+xml</dc:format>
    <dc:type
       rdf:resource="http://purl.org/dc/dcmitype/StillImage" />
  </cc:Work>
</rdf:RDF>
</metadata>
  <g
     transform="translate(0.000000,297.000000) scale(0.100000,-0.100000)"
     fill="#000000"
     stroke="none"
     id="g6"
     style="fill:#333333;fill-opacity:1">
    <path
       d="M1356 2962 c-2 -4 -27 -83 -55 -175 -28 -93 -53 -172 -56 -178 -4 -5 -14 -9 -25 -9 -10 0 -59 -14 -109 -31 -50 -17 -96 -27 -103 -23 -7 4 -75 54 -150 111 -76 57 -141 103 -145 103 -24 0 -223 -147 -223 -165 0 -7 27 -88 61 -179 l60 -167 -30 -34 c-16 -19 -49 -62 -72 -96 l-42 -62 -189 5 -189 6 -13 -27 c-21 -39 -77 -221 -72 -230 3 -4 73 -52 155 -107 l151 -99 0 -115 -1 -115 -154 -103 c-148 -98 -155 -103 -149 -130 10 -39 65 -204 75 -223 7 -13 32 -15 196 -11 l188 4 68 -91 69 -92 -61 -167 c-34 -92 -61 -172 -61 -179 0 -13 143 -124 192 -149 16 -8 36 -13 44 -10 8 3 76 53 152 110 l137 104 111 -37 112 -36 53 -177 c61 -208 41 -191 229 -186 l115 3 50 165 c62 205 60 200 84 200 10 0 60 14 110 31 50 17 96 27 103 23 7 -4 75 -54 150 -111 76 -57 141 -103 145 -103 24 0 223 147 223 165 0 7 -27 88 -61 179 l-60 167 30 34 c16 19 49 62 72 96 l42 62 189 -5 189 -6 13 27 c21 39 77 221 72 230 -3 4 -73 52 -155 107 l-151 99 0 115 1 115 154 103 c148 98 155 103 149 130 -10 39 -65 204 -75 223 -7 13 -32 15 -196 11 l-188 -4 -68 91 -69 92 61 167 c34 92 61 172 61 179 0 13 -143 124 -192 149 -16 8 -36 13 -44 10 -8 -3 -76 -53 -152 -110 l-137 -104 -111 37 -112 36 -52 177 c-44 147 -56 177 -74 182 -32 9 -264 7 -270 -2z m326 -793 c197 -55 351 -184 443 -374 135 -277 81 -594 -139 -810 -84 -82 -171 -135 -281 -172 -71 -24 -95 -27 -215 -27 -119 0 -144 3 -213 26 -344 115 -552 463 -483 808 21 102 86 243 149 319 180 216 467 305 739 230z"
       id="path8"
       style="fill:#333333;fill-opacity:1" />
  </g>
</svg>
